<?xml version="1.0" standalone="no"?>
<!DOCTYPE svg PUBLIC "-//W3C//DTD SVG 20010904//EN"
 "http://www.w3.org/TR/2001/REC-SVG-20010904/DTD/svg10.dtd">
<svg version="1.0" xmlns="http://www.w3.org/2000/svg"
 width="107.000000pt" height="107.000000pt" viewBox="0 0 107.000000 107.000000"
 preserveAspectRatio="xMidYMid meet">
<metadata>
Created by potrace 1.11, written by Peter Selinger 2001-2013
</metadata>
<g transform="translate(0.000000,107.000000) scale(0.100000,-0.100000)"
fill="#000000" stroke="none">
<path d="M759 903 c-24 -54 -65 -130 -91 -169 -25 -40 -72 -118 -104 -174 -46
-80 -67 -106 -94 -120 -20 -10 -41 -29 -47 -42 -6 -15 -37 -36 -79 -57 -38
-18 -103 -53 -145 -77 -45 -26 -94 -46 -122 -50 -52 -7 -64 -24 -17 -24 17 0
30 -4 30 -10 0 -5 7 -10 15 -10 8 0 14 -6 12 -12 -1 -7 6 -12 16 -12 9 1 17
-4 17 -12 0 -17 12 -18 28 -2 9 9 12 9 12 0 0 -16 27 -15 33 1 3 7 6 5 6 -5 1
-23 21 -23 28 0 5 20 101 78 199 120 100 42 218 71 346 84 61 6 104 14 96 18
-7 4 -44 13 -83 19 -63 11 -84 22 -85 43 0 5 31 38 69 75 69 69 78 84 117 216
15 50 21 59 46 64 43 9 44 23 1 24 l-38 0 55 26 c65 30 51 42 -22 18 -27 -9
-52 -14 -55 -12 -2 3 16 20 41 38 25 18 46 36 46 41 0 13 -24 9 -48 -8 -29
-20 -41 -10 -19 14 18 20 23 42 9 42 -4 0 -25 -18 -47 -40 -47 -48 -56 -45
-21 7 50 73 26 88 -29 17 -32 -43 -47 -46 -26 -6 18 36 22 72 8 72 -8 0 -33
-43 -58 -97z"/>
</g>
</svg>
